<svg width="165" height="126" viewBox="0 0 165 126" fill="none" xmlns="http://www.w3.org/2000/svg">
<path d="M109.526 17.7597C109.526 22.8726 105.374 27.0174 100.252 27.0174C95.1307 27.0174 90.9787 22.8726 90.9787 17.7597C90.9787 12.6468 95.1307 8.50192 100.252 8.50192C105.374 8.50192 109.526 12.6468 109.526 17.7597Z" fill="white"/>
<path fill-rule="evenodd" clip-rule="evenodd" d="M100.252 24.2609C103.856 24.2609 106.769 21.3457 106.769 17.7597C106.769 14.1736 103.856 11.2584 100.252 11.2584C96.6486 11.2584 93.7352 14.1736 93.7352 17.7597C93.7352 21.3457 96.6486 24.2609 100.252 24.2609ZM100.252 27.0174C105.374 27.0174 109.526 22.8726 109.526 17.7597C109.526 12.6468 105.374 8.50192 100.252 8.50192C95.1307 8.50192 90.9787 12.6468 90.9787 17.7597C90.9787 22.8726 95.1307 27.0174 100.252 27.0174Z" fill="black"/>
<path d="M80.9541 17.7597C80.9541 22.8726 76.8022 27.0174 71.6805 27.0174C66.5589 27.0174 62.4069 22.8726 62.4069 17.7597C62.4069 12.6468 66.5589 8.50192 71.6805 8.50192C76.8022 8.50192 80.9541 12.6468 80.9541 17.7597Z" fill="#0247A9"/>
<path d="M138.097 17.7597C138.097 22.8726 133.945 27.0174 128.824 27.0174C123.702 27.0174 119.55 22.8726 119.55 17.7597C119.55 12.6468 123.702 8.50192 128.824 8.50192C133.945 8.50192 138.097 12.6468 138.097 17.7597Z" fill="#DE1616"/>
<path d="M17.8397 41.026L30.7963 72.2343L42.1755 41.026H59.4133L33.9509 97.4714H25.839L0.489258 41.026H17.8397Z" fill="black"/>
<path d="M79.7247 41.026V96.3447H63.9516V41.026H79.7247Z" fill="black"/>
<path d="M108.221 41.026V125.863H92.448V41.026H108.221Z" fill="black"/>
<path d="M136.718 41.026V96.3447H120.944V41.026H136.718Z" fill="black"/>
<path d="M164.425 0.804443V96.3447H148.652V0.804443H164.425Z" fill="black"/>
</svg>
